<?xml version="1.0" encoding="utf-8"?>
<!-- Generator: Adobe Illustrator 27.5.0, SVG Export Plug-In . SVG Version: 6.00 Build 0)  -->
<svg version="1.1" id="Layer_1" xmlns="http://www.w3.org/2000/svg" xmlns:xlink="http://www.w3.org/1999/xlink" x="0px" y="0px"
	 viewBox="0 0 4000 4000" style="enable-background:new 0 0 4000 4000;" xml:space="preserve">
<g>
	<rect style="fill-rule:evenodd;clip-rule:evenodd;fill:#FFFFFF;" width="4000" height="4000"/>
	<g>
		<defs>
			<path id="SVGID_1_" d="M2051.868,2497.766c15.957-856.519,23.938-1284.779,23.938-1284.779
				c31.922,691.603,47.881,1037.401,47.881,1037.401c192.288-180.271,298.702-433.901,292.61-697.407
				c-6.095-263.501-124.118-511.942-324.532-683.133C1615.407,1496.828,1602.104,2039.466,2051.868,2497.766"/>
		</defs>
		<clipPath id="SVGID_00000025421712153753623640000005638901131289882788_">
			<use xlink:href="#SVGID_1_"  style="overflow:visible;"/>
		</clipPath>
		
			<linearGradient id="SVGID_00000065036551518595623310000007587035870687966857_" gradientUnits="userSpaceOnUse" x1="1739.6708" y1="2105.8689" x2="2441.833" y2="1018.6281">
			<stop  offset="0" style="stop-color:#006C11"/>
			<stop  offset="1" style="stop-color:#A1DA49"/>
		</linearGradient>
		
			<rect x="1602.104" y="869.848" style="clip-path:url(#SVGID_00000025421712153753623640000005638901131289882788_);fill:url(#SVGID_00000065036551518595623310000007587035870687966857_);" width="820.286" height="1627.918"/>
	</g>
	<g>
		<defs>
			<path id="SVGID_00000132063981471532460430000001881917945566556335_" d="M2121.039,2456.367
				c347.604-224.878,521.406-337.316,521.406-337.316c-268.575,199.537-402.866,299.305-402.866,299.305
				c124.177,28.394,254.564,2.561,358.533-71.031c103.966-73.593,171.672-187.979,186.172-314.53
				C2404.365,2011.164,2183.285,2152.354,2121.039,2456.367"/>
		</defs>
		<clipPath id="SVGID_00000110436666463981215570000011464532097745216144_">
			<use xlink:href="#SVGID_00000132063981471532460430000001881917945566556335_"  style="overflow:visible;"/>
		</clipPath>
		
			<linearGradient id="SVGID_00000065772545208069995370000005855222212152655531_" gradientUnits="userSpaceOnUse" x1="2231.7925" y1="2231.2571" x2="2886.8425" y2="2238.6975">
			<stop  offset="0" style="stop-color:#3EDB80"/>
			<stop  offset="1" style="stop-color:#C7D934"/>
		</linearGradient>
		
			<rect x="2121.039" y="2011.164" style="clip-path:url(#SVGID_00000110436666463981215570000011464532097745216144_);fill:url(#SVGID_00000065772545208069995370000005855222212152655531_);" width="663.246" height="445.203"/>
	</g>
	<g>
		<defs>
			<path id="SVGID_00000146457753474084988240000007336595189479762309_" d="M1878.961,2456.367
				c-347.604-224.878-521.406-337.316-521.406-337.316c268.578,199.537,402.863,299.305,402.863,299.305
				c-124.171,28.394-254.561,2.561-358.53-71.031c-103.967-73.593-171.672-187.979-186.172-314.53
				C1595.635,2011.164,1816.715,2152.354,1878.961,2456.367"/>
		</defs>
		<clipPath id="SVGID_00000176032163922548320200000016173089433572529571_">
			<use xlink:href="#SVGID_00000146457753474084988240000007336595189479762309_"  style="overflow:visible;"/>
		</clipPath>
		
			<linearGradient id="SVGID_00000179616118879483675660000016158224837272692614_" gradientUnits="userSpaceOnUse" x1="1768.2249" y1="2231.2568" x2="1113.1747" y2="2238.6975">
			<stop  offset="0" style="stop-color:#3EDB80"/>
			<stop  offset="1" style="stop-color:#C7D934"/>
		</linearGradient>
		
			<rect x="1215.715" y="2011.164" style="clip-path:url(#SVGID_00000176032163922548320200000016173089433572529571_);fill:url(#SVGID_00000179616118879483675660000016158224837272692614_);" width="663.246" height="445.203"/>
	</g>
	<path style="fill:#303030;" d="M2845.051,2887.39h53.947v-73.316l73.595-120.345h-60.037l-40.115,70.547l-39.841-70.547h-61.139
		l73.589,121.175V2887.39z M2495.355,2887.39h53.117v-106.237l82.724,106.237h47.028v-193.661h-53.117v102.363l-79.676-102.363
		h-50.075V2887.39z M2269.327,2811.031l21.855-55.055l21.581,55.055H2269.327z M2183.288,2887.39h56.438l13.83-34.581h74.701
		l14.109,34.581h57.542l-82.444-195.043h-51.732L2183.288,2887.39z M1989.626,2790.005v-51.18h25.176
		c19.366,0,30.986,8.852,30.986,25.452v0.555c0,15.214-11.62,25.173-30.71,25.173H1989.626z M1935.955,2887.39h53.67v-55.33h26.562
		c48.137,0,83.274-24.069,83.274-69.718v-0.555c0-42.881-31.539-68.057-80.511-68.057h-82.994V2887.39z M1619.181,2887.39h52.567
		v-110.664l49.243,75.253h1.106l49.522-75.805v111.217h53.397v-193.661h-56.715l-46.204,74.975l-46.201-74.975h-56.715V2887.39z
		 M1410.58,2842.848c-29.321,0-49.52-24.347-49.52-52.288v-0.556c0-27.941,19.642-51.735,48.969-51.735
		c29.604,0,49.796,24.346,49.796,52.291v0.552C1459.826,2819.054,1440.187,2842.848,1410.58,2842.848z M1410.03,2891.261
		c59.757,0,104.576-45.093,104.576-100.7v-0.556c0-55.608-44.263-100.148-104.025-100.148c-59.757,0-104.576,45.093-104.576,100.704
		v0.552C1306.005,2846.721,1350.273,2891.261,1410.03,2891.261z M1127.284,2891.261c42.886,0,67.506-18.533,85.766-43.71
		l-40.391-28.772c-11.62,14.11-23.517,23.515-43.712,23.515c-27.112,0-46.201-22.684-46.201-51.732v-0.556
		c0-28.219,19.089-51.18,46.201-51.18c18.536,0,31.263,8.852,42.327,22.686l40.394-31.264c-17.154-23.791-42.606-40.39-82.171-40.39
		c-58.648,0-102.087,44.263-102.087,100.704v0.552C1027.41,2848.932,1071.954,2891.261,1127.284,2891.261z"/>
	<path style="fill:#303030;" d="M2439.114,3082.771v-18.95h-52.567v-20.334h45.651v-18.952h-45.651v-19.642h51.873v-18.948h-72.895
		v96.825H2439.114z M2300.787,3082.771v-96.825h-21.025v59.616l-45.369-59.616h-19.642v96.825h21.025v-61.555l46.892,61.555
		H2300.787z M2149.042,3082.771v-96.825h-21.302v96.825H2149.042z M2069.228,3082.771v-19.227h-48.275v-77.598h-21.302v96.825
		H2069.228z M1937.682,3069.076v-42.05h-42.05v18.397h21.443v13.927c-5.442,3.894-12.129,5.855-20.06,5.855
		c-4.333,0-8.275-0.762-11.826-2.284c-3.548-1.519-6.64-3.685-9.267-6.454c-2.63-2.767-4.657-6.018-6.087-9.776
		c-1.43-3.735-2.145-7.835-2.145-12.263v-0.278c0-4.15,0.715-8.067,2.145-11.711c1.43-3.666,3.41-6.846,5.945-9.567
		c2.539-2.719,5.489-4.911,8.855-6.523c3.365-1.614,6.984-2.421,10.858-2.421c2.765,0,5.304,0.228,7.608,0.69
		c2.309,0.463,4.451,1.108,6.431,1.937c1.983,0.83,3.898,1.843,5.742,3.042c1.844,1.199,3.689,2.584,5.533,4.149l13.418-16.184
		c-2.492-2.12-5.072-4.009-7.749-5.67c-2.671-1.659-5.531-3.041-8.572-4.149c-3.045-1.107-6.343-1.961-9.893-2.559
		c-3.551-0.601-7.49-0.898-11.826-0.898c-7.375,0-14.156,1.313-20.331,3.94c-6.181,2.626-11.529,6.224-16.047,10.789
		c-4.519,4.565-8.046,9.868-10.582,15.907c-2.536,6.041-3.804,12.518-3.804,19.436v0.274c0,7.195,1.247,13.834,3.736,19.919
		c2.489,6.087,5.969,11.341,10.443,15.769c4.469,4.428,9.82,7.885,16.045,10.375c6.225,2.49,13.118,3.735,20.681,3.735
		c8.852,0,16.712-1.5,23.582-4.497C1926.78,3076.939,1932.702,3073.318,1937.682,3069.076z M1754.54,3042.243h-25.726l12.862-31.401
		L1754.54,3042.243z M1793.272,3082.771l-41.494-97.519h-19.642l-41.497,97.519h21.716l8.852-21.717h40.944l8.852,21.717H1793.272z
		 M1641.115,3005.586v-19.64h-80.229v19.64h29.465v77.185h21.302v-77.185H1641.115z"/>
</g>
</svg>
